# xmcd CD database file
# Copyright (C) 1996 Ti Kan
#
# Track frame offsets:
#  187
#  13407
#  26915
#  40457
#  55112
#  68730
#  83275
#  95332
#  108762
#  122875
#  136710
#  149425
#  163330
#  176555
#  191400
#  204652
#  218327
#  233297
#  246637
#  261215
#
# Disc length: 3669 seconds
#
# Revision: 2
# Processed by: cddbd v1.4PL0 Copyright (c) Steve Scherf et al.
# Submitted via: Gronk 1.4
#
DISCID=160e5314
DTITLE=Lonnie Johnson - He's A Jelly Roll Baker
DYEAR=1900
DGENRE=blues
TTITLE0=Why Women Go Wrong
TTITLE1=Nothing But A Rat
TTITLE2=Jersey Belle Blues
TTITLE3=The Loveless Blues
TTITLE4=I'm Just Dumb
TTITLE5=Get Yourself Together
TTITLE6=Crowing Rooster Blues
TTITLE7=That's Love
TTITLE8=Somebody's Got To Go
TTITLE9=Lazy Woman Blues
TTITLE10=Chicago Blues
TTITLE11=I Did All I Could
TTITLE12=In Love Again
TTITLE13=The Last Call
TTITLE14=Rambler's Blues
TTITLE15=Baby Remember Me
TTITLE16=He's A Jelly Roll Baker
TTITLE17=When You Feel Low Down
TTITLE18=The Victim Of Love
TTITLE19=Watch Shorty
EXTD=
EXTT0=
EXTT1=
EXTT2=
EXTT3=
EXTT4=
EXTT5=
EXTT6=
EXTT7=
EXTT8=
EXTT9=
EXTT10=
EXTT11=
EXTT12=
EXTT13=
EXTT14=
EXTT15=
EXTT16=
EXTT17=
EXTT18=
EXTT19=
PLAYORDER=
